<svg xmlns="http://www.w3.org/2000/svg" id="Layer_1" viewBox="0 0 261.67 51.77"><style>.st8{fill:#3159a6}</style><path d="M24.82 21.52v-6.66h15.19v13.65c-2.91 1.99-5.48 3.35-7.71 4.07-2.23.72-4.89 1.08-7.95 1.08-3.77 0-6.85-.65-9.23-1.94-2.38-1.3-4.22-3.22-5.53-5.79-1.31-2.56-1.96-5.5-1.96-8.82 0-3.49.72-6.53 2.15-9.12 1.43-2.58 3.53-4.55 6.29-5.89 2.15-1.03 5.05-1.55 8.7-1.55 3.51 0 6.14.32 7.89.96 1.74.64 3.19 1.63 4.34 2.98s2.01 3.05 2.59 5.12l-9.48 1.7c-.39-1.21-1.05-2.13-1.99-2.77-.93-.64-2.12-.96-3.57-.96-2.16 0-3.87.75-5.15 2.26-1.28 1.51-1.92 3.89-1.92 7.15 0 3.47.65 5.94 1.94 7.43 1.29 1.49 3.1 2.23 5.41 2.23 1.1 0 2.15-.16 3.15-.48 1-.32 2.14-.87 3.43-1.64v-3.01h-6.59z" fill="#539445"/><path d="M68.2 33.12h-8.24v-3.76c-1.23 1.54-2.47 2.64-3.72 3.3-1.25.66-2.79.98-4.61.98-2.43 0-4.34-.73-5.72-2.19s-2.07-3.72-2.07-6.76V9.93h8.87v12.75c0 1.46.27 2.49.8 3.1.53.61 1.29.92 2.26.92 1.06 0 1.92-.41 2.59-1.22.67-.82 1.01-2.28 1.01-4.39V9.93h8.83v23.19z" fill="#8bc540"/><path d="M80.28 17.44l-8.44-.9c.32-1.49.78-2.65 1.38-3.51.6-.85 1.46-1.59 2.59-2.22.81-.45 1.92-.8 3.34-1.05s2.95-.37 4.6-.37c2.65 0 4.77.15 6.38.45 1.61.3 2.94.92 4.01 1.87.75.66 1.35 1.58 1.78 2.78.43 1.2.65 2.35.65 3.44v10.24c0 1.09.07 1.95.21 2.57.14.62.44 1.41.9 2.37h-8.29c-.33-.6-.55-1.05-.65-1.36-.1-.31-.2-.8-.3-1.47-1.16 1.12-2.31 1.92-3.45 2.4-1.56.64-3.38.96-5.45.96-2.75 0-4.83-.64-6.26-1.92-1.42-1.28-2.14-2.86-2.14-4.74 0-1.76.51-3.21 1.54-4.35 1.03-1.14 2.92-1.98 5.68-2.53 3.31-.67 5.46-1.14 6.44-1.41.98-.27 2.02-.62 3.12-1.06 0-1.09-.22-1.86-.67-2.29-.45-.44-1.24-.66-2.36-.66-1.45 0-2.53.23-3.25.7-.56.37-1.02 1.06-1.36 2.06zm7.66 4.67c-1.21.44-2.48.82-3.8 1.16-1.79.48-2.93.95-3.41 1.42-.49.48-.73 1.03-.73 1.64 0 .7.24 1.27.73 1.71.48.44 1.2.67 2.14.67.98 0 1.9-.24 2.74-.72.85-.48 1.45-1.07 1.8-1.76.35-.69.53-1.59.53-2.7v-1.42z" fill="#ffc440"/><path d="M124.79 1.1v32.02h-8.27v-3.43c-1.16 1.46-2.21 2.44-3.17 2.95-1.27.67-2.69 1-4.25 1-3.14 0-5.54-1.2-7.19-3.6-1.66-2.4-2.48-5.32-2.48-8.76 0-3.84.91-6.78 2.74-8.82s4.15-3.06 6.97-3.06c1.37 0 2.62.23 3.74.7s2.12 1.17 2.98 2.1V1.1h8.93zm-8.86 20.36c0-1.82-.38-3.18-1.15-4.07-.77-.9-1.74-1.34-2.91-1.34-1.03 0-1.89.43-2.58 1.29-.69.86-1.04 2.3-1.04 4.32 0 1.89.36 3.28 1.07 4.16.72.88 1.6 1.32 2.66 1.32 1.13 0 2.07-.44 2.82-1.33.76-.89 1.13-2.34 1.13-4.35z" fill="#f6921f"/><path d="M136.88 17.44l-8.44-.9c.32-1.49.78-2.65 1.38-3.51.6-.85 1.46-1.59 2.59-2.22.81-.45 1.92-.8 3.34-1.05s2.95-.37 4.6-.37c2.65 0 4.77.15 6.38.45 1.61.3 2.94.92 4.01 1.87.75.66 1.35 1.58 1.78 2.78s.65 2.35.65 3.44v10.24c0 1.09.07 1.95.21 2.57.14.62.44 1.41.9 2.37h-8.29c-.33-.6-.55-1.05-.65-1.36-.1-.31-.2-.8-.3-1.47-1.16 1.12-2.31 1.92-3.45 2.4-1.56.64-3.38.96-5.45.96-2.75 0-4.83-.64-6.26-1.92-1.42-1.28-2.14-2.86-2.14-4.74 0-1.76.51-3.21 1.54-4.35 1.03-1.14 2.92-1.98 5.68-2.53 3.31-.67 5.46-1.14 6.44-1.41.98-.27 2.02-.62 3.12-1.06 0-1.09-.22-1.86-.67-2.29-.45-.44-1.24-.66-2.36-.66-1.45 0-2.53.23-3.25.7-.56.37-1.01 1.06-1.36 2.06zm7.66 4.67c-1.21.44-2.48.82-3.8 1.16-1.79.48-2.93.95-3.41 1.42-.49.48-.74 1.03-.74 1.64 0 .7.24 1.27.73 1.71.48.44 1.2.67 2.14.67.98 0 1.9-.24 2.74-.72.85-.48 1.45-1.07 1.8-1.76.35-.69.53-1.59.53-2.7v-1.42z" fill="#ee4337"/><path d="M157.44 1.1h8.85v32.02h-8.85V1.1z" fill="#2eaae1"/><path d="M194.88 33.12h-8.24v-3.76c-1.23 1.54-2.47 2.64-3.72 3.3-1.25.66-2.79.98-4.61.98-2.43 0-4.34-.73-5.72-2.19s-2.07-3.72-2.07-6.76V9.93h8.87v12.75c0 1.46.27 2.49.8 3.1.53.61 1.29.92 2.26.92 1.06 0 1.92-.41 2.59-1.22.67-.82 1.01-2.28 1.01-4.39V9.93h8.83v23.19z" fill="#90298d"/><path d="M198.94 41.94V9.93h8.27v3.43c1.14-1.44 2.19-2.42 3.15-2.93 1.29-.68 2.71-1.03 4.27-1.03 3.08 0 5.46 1.19 7.15 3.56 1.68 2.37 2.53 5.31 2.53 8.8 0 3.86-.92 6.8-2.76 8.83-1.84 2.03-4.16 3.05-6.96 3.05-1.36 0-2.6-.23-3.72-.7a8.976 8.976 0 0 1-3-2.07v11.07h-8.93zm8.86-20.35c0 1.83.38 3.2 1.15 4.08.77.89 1.74 1.33 2.91 1.33 1.03 0 1.89-.43 2.58-1.28s1.04-2.3 1.04-4.34c0-1.88-.36-3.26-1.08-4.14-.72-.88-1.61-1.32-2.65-1.32-1.13 0-2.07.44-2.82 1.33-.76.9-1.13 2.35-1.13 4.34z" fill="#e95584"/><path class="st8" d="M252.78 23.73h-17.7c.16 1.43.54 2.49 1.15 3.19.85 1 1.97 1.51 3.34 1.51.87 0 1.69-.22 2.47-.66.48-.28.99-.76 1.54-1.46l8.7.81c-1.33 2.33-2.94 4-4.82 5.01-1.88 1.01-4.58 1.52-8.09 1.52-3.05 0-5.45-.43-7.2-1.3-1.75-.87-3.2-2.24-4.35-4.13-1.15-1.89-1.72-4.1-1.72-6.65 0-3.63 1.15-6.56 3.46-8.8 2.31-2.24 5.49-3.36 9.56-3.36 3.3 0 5.9.5 7.81 1.51 1.91 1 3.36 2.46 4.36 4.37 1 1.91 1.5 4.39 1.5 7.45v.99zm-8.98-4.26c-.17-1.72-.63-2.95-1.38-3.69-.75-.74-1.72-1.11-2.94-1.11-1.4 0-2.52.56-3.36 1.68-.54.7-.88 1.74-1.02 3.12h8.7z"/><g><path class="st8" d="M115.69 44.28l5.25 1.33c-.35 1.23-.91 2.27-1.67 3.09-.76.83-1.7 1.45-2.82 1.87s-2.55.63-4.29.63c-2.11 0-3.83-.26-5.16-.77-1.34-.51-2.49-1.42-3.46-2.71-.97-1.29-1.45-2.95-1.45-4.97 0-2.69.85-4.76 2.56-6.2 1.71-1.44 4.12-2.17 7.24-2.17 2.44 0 4.36.41 5.76 1.24 1.4.83 2.43 2.1 3.11 3.82l-5.29.99c-.19-.5-.38-.86-.58-1.09-.34-.38-.74-.68-1.23-.89-.48-.21-1.03-.31-1.63-.31-1.36 0-2.4.46-3.12 1.37-.55.68-.82 1.75-.82 3.2 0 1.8.33 3.04.98 3.71.65.67 1.57 1 2.75 1 1.15 0 2.01-.27 2.6-.81.58-.52 1.01-1.3 1.27-2.33zM138.4 46.17h-10.79c.1.72.33 1.26.7 1.62.52.51 1.2.77 2.04.77.53 0 1.03-.11 1.51-.33.29-.14.6-.39.94-.74l5.3.41c-.81 1.18-1.79 2.03-2.93 2.55-1.15.51-2.79.77-4.93.77-1.86 0-3.32-.22-4.39-.66-1.07-.44-1.95-1.14-2.65-2.1-.7-.96-1.05-2.08-1.05-3.38 0-1.84.7-3.33 2.11-4.47 1.41-1.14 3.35-1.71 5.82-1.71 2.01 0 3.6.25 4.76.77 1.16.51 2.05 1.25 2.66 2.22.61.97.91 2.23.91 3.78v.5zM132.93 44c-.11-.87-.39-1.5-.84-1.87s-1.05-.57-1.79-.57c-.85 0-1.54.28-2.05.85-.33.35-.53.88-.62 1.59h5.3zM140.2 39.16h5.01v1.92c.75-.78 1.51-1.34 2.27-1.68s1.7-.5 2.8-.5c1.49 0 2.65.37 3.5 1.11.84.74 1.26 1.89 1.26 3.44v7.49h-5.41v-6.48c0-.74-.16-1.26-.49-1.57-.33-.31-.78-.46-1.37-.46-.65 0-1.18.21-1.59.62-.41.41-.61 1.16-.61 2.23v5.66h-5.38V39.16zM164.07 34.68v4.48h2.96v3.3h-2.96v4.17c0 .5.06.83.17 1 .18.25.48.38.93.38.4 0 .95-.1 1.67-.29l.4 3.12c-1.33.24-2.57.37-3.73.37-1.34 0-2.33-.14-2.96-.43s-1.1-.73-1.41-1.31c-.3-.59-.46-1.54-.46-2.85v-4.14h-1.98v-3.3h1.98v-2.16l5.39-2.34zM184.51 46.17h-10.79c.1.72.33 1.26.7 1.62.52.51 1.2.77 2.04.77.53 0 1.03-.11 1.51-.33.29-.14.6-.39.94-.74l5.3.41c-.81 1.18-1.79 2.03-2.93 2.55-1.15.51-2.79.77-4.93.77-1.86 0-3.32-.22-4.39-.66-1.07-.44-1.95-1.14-2.65-2.1-.7-.96-1.05-2.08-1.05-3.38 0-1.84.7-3.33 2.11-4.47 1.41-1.14 3.35-1.71 5.82-1.71 2.01 0 3.6.25 4.76.77 1.16.51 2.05 1.25 2.66 2.22.61.97.91 2.23.91 3.78v.5zM179.03 44c-.11-.87-.39-1.5-.84-1.87-.45-.38-1.05-.57-1.79-.57-.85 0-1.54.28-2.05.85-.33.35-.53.88-.62 1.59h5.3zM186.35 39.16h5.04v1.93c.48-.84.99-1.41 1.5-1.72.52-.31 1.15-.47 1.91-.47.79 0 1.66.21 2.6.62l-1.67 3.22c-.63-.22-1.14-.33-1.51-.33-.71 0-1.25.24-1.64.73-.56.69-.83 1.97-.83 3.86v3.95h-5.41V39.16z"/></g></svg>